<svg width="41" height="40" viewBox="0 0 41 40" fill="none" xmlns="http://www.w3.org/2000/svg">
<path d="M9.51562 19.1406L20.0625 8.59375L16.5469 5.15625L11.7812 10C11.625 10.0781 11.4688 10.1562 11.3125 10.1562C11.1562 10.1562 11 10.0781 10.9219 10L9.98438 9.0625C9.75 8.82812 9.75 8.4375 9.98438 8.20312L14.8281 3.35938L12.1719 0.78125C11.2344 -0.234375 9.67188 -0.234375 8.73438 0.78125L1.70312 7.73438C0.6875 8.75 0.6875 10.3125 1.70312 11.25L9.51562 19.1406ZM39.8281 10C41.3125 8.51562 41.3125 6.17188 39.8281 4.6875L36.3125 1.17188C34.8281 -0.3125 32.4844 -0.3125 31 1.17188L27.4062 4.76562L36.2344 13.5938L39.8281 10ZM25.6875 6.48438L2.48438 29.6875L1 38.125C0.765625 39.2188 1.78125 40.2344 2.875 40L11.3125 38.5156L34.5156 15.3125L25.6875 6.48438ZM40.2188 28.8281L37.6406 26.1719L32.7969 31.0156C32.5625 31.25 32.1719 31.25 31.9375 31.0156L31 30.0781C30.7656 29.8438 30.7656 29.4531 31 29.2188L35.8438 24.4531L32.4062 20.9375L21.8594 31.4844L29.75 39.2969C30.6875 40.3125 32.25 40.3125 33.2656 39.2969L40.2188 32.2656C41.2344 31.3281 41.2344 29.7656 40.2188 28.8281Z" fill="white"/>
</svg>
