<svg width="56" height="44" viewBox="0 0 56 44" fill="none" xmlns="http://www.w3.org/2000/svg">
<path d="M12.2305 13.4062C12.2305 12.6445 11.5859 12 10.8242 12H4.90625C4.08594 12 3.5 12.6445 3.5 13.4062V18.0938C3.5 18.9141 4.08594 19.5 4.90625 19.5H10.8242C11.5859 19.5 12.2305 18.9141 12.2305 18.0938V13.4062ZM3.5 22.7812V27.4688C3.5 28.2891 4.08594 28.875 4.90625 28.875H10.8242C11.5859 28.875 12.2305 28.2891 12.2305 27.4688V22.7812C12.2305 22.0195 11.5859 21.375 10.8242 21.375H4.90625C4.08594 21.375 3.5 22.0195 3.5 22.7812ZM10.8242 2.625H4.90625C4.08594 2.625 3.5 3.26953 3.5 4.03125V8.71875C3.5 9.53906 4.08594 10.125 4.90625 10.125H10.8242C11.5859 10.125 12.2305 9.53906 12.2305 8.71875V4.03125C12.2305 3.26953 11.5859 2.625 10.8242 2.625ZM15.5117 28.875H32.0938C32.8555 28.875 33.5 28.2891 33.5 27.4688V22.7812C33.5 22.0195 32.8555 21.375 32.0938 21.375H15.5117C14.75 21.375 14.1055 22.0195 14.1055 22.7812V27.4688C14.1055 28.2891 14.75 28.875 15.5117 28.875ZM14.1055 4.03125V8.71875C14.1055 9.53906 14.75 10.125 15.5117 10.125H32.0938C32.8555 10.125 33.5 9.53906 33.5 8.71875V4.03125C33.5 3.26953 32.8555 2.625 32.0938 2.625H15.5117C14.75 2.625 14.1055 3.26953 14.1055 4.03125ZM15.5117 19.5H32.0938C32.8555 19.5 33.5 18.9141 33.5 18.0938V13.4062C33.5 12.6445 32.8555 12 32.0938 12H15.5117C14.75 12 14.1055 12.6445 14.1055 13.4062V18.0938C14.1055 18.9141 14.75 19.5 15.5117 19.5Z" fill="white"/>
<path d="M41.125 26.75C45.2266 26.75 48.625 23.4102 48.625 19.25C48.625 15.1484 45.2266 11.75 41.125 11.75C36.9648 11.75 33.625 15.1484 33.625 19.25C33.625 23.4102 36.9648 26.75 41.125 26.75ZM46.3398 28.625H45.3438C44.0547 29.2695 42.6484 29.5625 41.125 29.5625C39.6016 29.5625 38.1367 29.2695 36.8477 28.625H35.8516C31.5156 28.625 28 32.1992 28 36.5352V38.9375C28 40.5195 29.2305 41.75 30.8125 41.75H51.4375C52.9609 41.75 54.25 40.5195 54.25 38.9375V36.5352C54.25 32.1992 50.6758 28.625 46.3398 28.625Z" fill="white"/>
</svg>
